<?xml version="1.0" encoding="utf-8"?>
<!-- Generator: Adobe Illustrator 16.0.4, SVG Export Plug-In . SVG Version: 6.00 Build 0)  -->
<!DOCTYPE svg PUBLIC "-//W3C//DTD SVG 1.1//EN" "http://www.w3.org/Graphics/SVG/1.1/DTD/svg11.dtd">
<svg version="1.1" id="Ebene_1" xmlns="http://www.w3.org/2000/svg" xmlns:xlink="http://www.w3.org/1999/xlink" x="0px" y="0px"
	 width="200px" height="200px" viewBox="0 0 200 200" enable-background="new 0 0 200 200" xml:space="preserve">
<path fill="#58BBE5" d="M167.477,142.032c0,13.86-11.234,25.095-25.095,25.095H53.156c-13.86,0-25.095-11.234-25.095-25.095V55.595
	c0-13.86,11.235-25.095,25.095-25.095h89.226c13.86,0,25.095,11.235,25.095,25.095V142.032z"/>
<g>
	<path fill="#FFFFFF" d="M81.159,99.059c0,3.005-0.788,5.279-2.364,6.818c-1.577,1.542-3.893,2.312-6.947,2.312h-4.29V90.272h4.84
		c2.86,0,5.035,0.748,6.525,2.243C80.413,94.01,81.159,96.191,81.159,99.059z M79.798,99.108c0-2.566-0.651-4.497-1.954-5.79
		c-1.304-1.296-3.216-1.942-5.741-1.942h-3.295v15.71h2.965C77.123,107.086,79.798,104.425,79.798,99.108z"/>
	<path fill="#FFFFFF" d="M90.35,108.432c-1.937,0-3.445-0.6-4.528-1.789c-1.084-1.193-1.624-2.862-1.624-5.011
		c0-2.124,0.522-3.829,1.568-5.108c1.046-1.277,2.456-1.918,4.228-1.918c1.568,0,2.806,0.549,3.712,1.644
		c0.906,1.094,1.36,2.584,1.36,4.457v0.98h-9.592c0.016,1.83,0.443,3.227,1.28,4.19c0.836,0.967,2.036,1.445,3.597,1.445
		c0.76,0,1.428-0.051,2.003-0.155c0.576-0.105,1.305-0.335,2.187-0.686v1.103c-0.751,0.325-1.446,0.553-2.083,0.668
		C91.819,108.374,91.118,108.432,90.35,108.432z M89.994,95.688c-1.283,0-2.312,0.424-3.088,1.269
		c-0.776,0.846-1.23,2.066-1.361,3.658h8.234c0-1.543-0.335-2.75-1.005-3.621C92.103,96.126,91.177,95.688,89.994,95.688z"/>
	<path fill="#FFFFFF" d="M115.383,108.189v-8.738c0-1.299-0.254-2.248-0.761-2.844c-0.504-0.596-1.281-0.896-2.327-0.896
		c-1.366,0-2.373,0.378-3.027,1.129c-0.653,0.752-0.98,1.933-0.98,3.542v7.808h-1.237v-9.106c0-2.246-1.029-3.369-3.089-3.369
		c-1.397,0-2.413,0.406-3.052,1.219c-0.638,0.812-0.957,2.114-0.957,3.903v7.353h-1.211V94.867h1.005l0.258,1.828h0.077
		c0.367-0.664,0.89-1.174,1.568-1.539c0.675-0.364,1.424-0.544,2.241-0.544c2.099,0,3.447,0.787,4.04,2.364h0.05
		c0.436-0.76,1.014-1.345,1.745-1.752c0.729-0.409,1.562-0.612,2.494-0.612c1.454,0,2.543,0.387,3.271,1.162
		c0.726,0.778,1.091,2.01,1.091,3.702v8.714H115.383z"/>
	<path fill="#FFFFFF" d="M131.912,101.509c0,2.176-0.528,3.87-1.582,5.093c-1.055,1.219-2.508,1.83-4.362,1.83
		c-1.168,0-2.197-0.28-3.088-0.845c-0.893-0.563-1.575-1.372-2.049-2.426c-0.475-1.054-0.711-2.271-0.711-3.652
		c0-2.172,0.527-3.862,1.581-5.078s2.5-1.819,4.334-1.819c1.83,0,3.269,0.614,4.312,1.844
		C131.391,97.683,131.912,99.369,131.912,101.509z M121.398,101.509c0,1.83,0.401,3.257,1.206,4.284
		c0.804,1.023,1.942,1.537,3.41,1.537c1.473,0,2.606-0.511,3.412-1.537c0.804-1.027,1.207-2.454,1.207-4.284
		c0-1.834-0.408-3.264-1.219-4.272c-0.813-1.013-1.955-1.52-3.426-1.52c-1.474,0-2.604,0.504-3.398,1.513
		C121.796,98.234,121.398,99.663,121.398,101.509z"/>
</g>
</svg>
