<?xml version="1.0" encoding="utf-8"?>
<!-- Generator: Adobe Illustrator 16.0.4, SVG Export Plug-In . SVG Version: 6.00 Build 0)  -->
<!DOCTYPE svg PUBLIC "-//W3C//DTD SVG 1.1//EN" "http://www.w3.org/Graphics/SVG/1.1/DTD/svg11.dtd">
<svg version="1.1" id="features_icon_warp" xmlns="http://www.w3.org/2000/svg" xmlns:xlink="http://www.w3.org/1999/xlink" x="0px"
	 y="0px" width="150px" height="150px" viewBox="0 0 150 150" enable-background="new 0 0 150 150" xml:space="preserve">
<g>
	<path fill="#444444" d="M132.857,112.028c0,11.504-9.325,20.829-20.829,20.829H37.972c-11.503,0-20.829-9.325-20.829-20.829V37.972
		c0-11.503,9.326-20.829,20.829-20.829h74.057c11.504,0,20.829,9.326,20.829,20.829V112.028z"/>
	<g>
		<path fill="#FFFFFF" d="M61.214,75.203c0,2.495-0.654,4.383-1.963,5.659c-1.309,1.279-3.23,1.919-5.766,1.919h-3.561v-14.87h4.017
			c2.374,0,4.18,0.62,5.416,1.86C60.595,71.013,61.214,72.823,61.214,75.203z M60.084,75.244c0-2.129-0.54-3.731-1.622-4.806
			c-1.082-1.075-2.67-1.612-4.766-1.612h-2.734v13.04h2.461C57.863,81.866,60.084,79.658,60.084,75.244z"/>
		<path fill="#FFFFFF" d="M68.842,82.982c-1.607,0-2.859-0.495-3.759-1.483c-0.899-0.989-1.348-2.377-1.348-4.16
			c0-1.763,0.434-3.176,1.302-4.237c0.868-1.061,2.037-1.591,3.508-1.591c1.302,0,2.33,0.455,3.082,1.363s1.129,2.144,1.129,3.701
			v0.813h-7.962c0.014,1.519,0.368,2.679,1.062,3.479c0.694,0.802,1.689,1.2,2.985,1.2c0.631,0,1.185-0.043,1.663-0.131
			c0.479-0.089,1.083-0.278,1.815-0.57v0.916c-0.624,0.271-1.2,0.456-1.729,0.554C70.062,82.935,69.479,82.982,68.842,82.982z
			 M68.546,72.406c-1.064,0-1.918,0.351-2.562,1.054c-0.645,0.702-1.021,1.713-1.13,3.036h6.835c0-1.281-0.278-2.283-0.835-3.006
			C70.297,72.769,69.529,72.406,68.546,72.406z"/>
		<path fill="#FFFFFF" d="M89.619,82.781v-7.253c0-1.078-0.21-1.863-0.631-2.359c-0.419-0.495-1.064-0.743-1.932-0.743
			c-1.134,0-1.97,0.312-2.513,0.937c-0.542,0.624-0.813,1.604-0.813,2.939v6.479h-1.027v-7.558c0-1.863-0.854-2.796-2.563-2.796
			c-1.16,0-2.003,0.338-2.531,1.012c-0.529,0.675-0.794,1.755-0.794,3.24v6.102h-1.007V71.725h0.834l0.214,1.517h0.062
			c0.305-0.55,0.738-0.975,1.302-1.276c0.562-0.302,1.183-0.453,1.86-0.453c1.743,0,2.861,0.654,3.355,1.963h0.041
			c0.36-0.63,0.842-1.115,1.448-1.455c0.607-0.339,1.298-0.508,2.07-0.508c1.207,0,2.112,0.322,2.716,0.967s0.904,1.668,0.904,3.071
			v7.231H89.619z"/>
		<path fill="#FFFFFF" d="M103.339,77.237c0,1.805-0.438,3.212-1.313,4.227c-0.875,1.013-2.081,1.519-3.62,1.519
			c-0.97,0-1.824-0.232-2.563-0.7c-0.738-0.468-1.305-1.14-1.698-2.014c-0.394-0.875-0.59-1.886-0.59-3.031
			c0-1.804,0.438-3.208,1.312-4.215c0.875-1.007,2.075-1.511,3.601-1.511c1.518,0,2.71,0.511,3.575,1.531
			C102.906,74.062,103.339,75.46,103.339,77.237z M94.612,77.237c0,1.519,0.333,2.703,1.002,3.556
			c0.666,0.85,1.612,1.276,2.831,1.276c1.221,0,2.164-0.426,2.832-1.276c0.668-0.853,1.002-2.037,1.002-3.556
			c0-1.524-0.338-2.709-1.011-3.549c-0.676-0.841-1.623-1.261-2.843-1.261c-1.221,0-2.161,0.419-2.823,1.255
			C94.942,74.52,94.612,75.705,94.612,77.237z"/>
	</g>
</g>
</svg>
