<?xml version="1.0" encoding="utf-8"?>
<!-- Generator: Adobe Illustrator 16.0.4, SVG Export Plug-In . SVG Version: 6.00 Build 0)  -->
<!DOCTYPE svg PUBLIC "-//W3C//DTD SVG 1.1//EN" "http://www.w3.org/Graphics/SVG/1.1/DTD/svg11.dtd">
<svg version="1.1" id="Ebene_1" xmlns="http://www.w3.org/2000/svg" xmlns:xlink="http://www.w3.org/1999/xlink" x="0px" y="0px"
	 width="143.616px" height="75.116px" viewBox="0 0 143.616 75.116" enable-background="new 0 0 143.616 75.116"
	 xml:space="preserve">
<g>
	<path fill="#FAFAFA" d="M9.365,65.909h8.216v6.148H1.945V37.767h15.636v6.042H9.365v8.056h7.686v5.83H9.365V65.909z"/>
	<path fill="#FAFAFA" d="M33.533,46.193h6.891l-5.672,25.864h-9.381L19.7,46.193h6.891l3.498,20.087L33.533,46.193z"/>
	<path fill="#FAFAFA" d="M56.058,45.664c4.381,0,6.572,2.332,6.572,6.995v8.374H50.599v5.406c0,0.283,0.098,0.53,0.292,0.742
		c0.193,0.212,0.433,0.318,0.716,0.318h2.915c0.282,0,0.521-0.106,0.715-0.318s0.292-0.459,0.292-0.742v-2.862h7.102v2.015
		c0,4.664-2.191,6.996-6.572,6.996h-5.988c-4.382,0-6.572-2.332-6.572-6.996V52.659c0-4.663,2.19-6.995,6.572-6.995H56.058z
		 M50.599,56.369h4.93V51.6c0-0.282-0.098-0.53-0.292-0.742s-0.433-0.317-0.715-0.317h-2.915c-0.283,0-0.522,0.105-0.716,0.317
		c-0.194,0.212-0.292,0.46-0.292,0.742V56.369z"/>
	<path fill="#FAFAFA" d="M77.576,45.664h1.377v6.89h-3.498c-1.201,0-1.801,0.618-1.801,1.854v17.649h-7.103V46.193h6.466v2.491
		C74.041,46.671,75.561,45.664,77.576,45.664z"/>
	<path fill="#FAFAFA" d="M94.694,45.664c4.381,0,6.571,2.332,6.571,6.995v8.374h-12.03v5.406c0,0.283,0.097,0.53,0.291,0.742
		s0.433,0.318,0.716,0.318h2.915c0.282,0,0.521-0.106,0.715-0.318s0.292-0.459,0.292-0.742v-2.862h7.102v2.015
		c0,4.664-2.19,6.996-6.571,6.996h-5.989c-4.382,0-6.572-2.332-6.572-6.996V52.659c0-4.663,2.19-6.995,6.572-6.995H94.694z
		 M89.235,56.369h4.929V51.6c0-0.282-0.098-0.53-0.292-0.742s-0.433-0.317-0.715-0.317h-2.915c-0.283,0-0.521,0.105-0.716,0.317
		s-0.291,0.46-0.291,0.742V56.369z"/>
	<path fill="#FAFAFA" d="M117.378,55.84c4.381,0,6.572,2.332,6.572,6.996v2.756c0,4.664-2.191,6.996-6.572,6.996h-5.883
		c-4.382,0-6.572-2.332-6.572-6.996v-1.644h6.572v2.332c0,0.283,0.097,0.53,0.291,0.742s0.433,0.318,0.716,0.318h4.346
		c0.282,0,0.521-0.106,0.716-0.318c0.193-0.212,0.291-0.459,0.291-0.742v-3.18c0-0.282-0.098-0.53-0.291-0.742
		c-0.195-0.212-0.434-0.317-0.716-0.317h-5.459c-4.382,0-6.572-2.332-6.572-6.996v-2.386c0-4.663,2.19-6.995,6.572-6.995h5.565
		c4.381,0,6.571,2.332,6.571,6.995v0.954h-6.571v-1.643c0-0.282-0.098-0.53-0.292-0.742s-0.433-0.318-0.716-0.318h-4.027
		c-0.283,0-0.521,0.106-0.716,0.318s-0.291,0.46-0.291,0.742v2.809c0,0.283,0.097,0.53,0.291,0.742s0.433,0.318,0.716,0.318H117.378
		z"/>
	<path fill="#FAFAFA" d="M137.571,67.977h2.12v4.611h-4.982c-4.382,0-6.572-2.332-6.572-6.996V40.576h7.103v5.618h4.452v5.142
		h-4.452v14.098c0,0.989,0.193,1.661,0.583,2.014C136.21,67.8,136.793,67.977,137.571,67.977z"/>
</g>
<path opacity="0.4" fill="#FFFFFF" d="M113.002,28.654l-4.108,2.988L93.301,14.555l-4.388,3.419L77.055,5.031l-6.443,6.536
	l-9.15-10.529L39.52,25.012l-5.229-3.974L22.782,34.91l0,6.128l10.109-6.969l3.175,6.969h7.096l-4.575-3.794l1.96-1.944
	l-0.093-3.098l-5.042-7.75l9.617,7.376V35.3l3.548,5.738h37.721l-8.565-6.969l-4.319,3.734v-6.629l-2.428-1.961L64.45,27.72
	l3.828-4.015L57.82,15.021l6.442-2.334l-1.867-4.202V5.031l8.216,10.084l11.858,7.563v8.03l11.485,10.33h10.83l3.455-3.234h2.241
	l2.24-3.734l6.163,6.969h2.896v-3.047L113.002,28.654z M75.934,13.995V9.326l7.377,7.096L75.934,13.995z M96.942,33.603
	l-1.587-12.564l7.282,8.083L96.942,33.603z"/>
<g>
</g>
<g>
</g>
<g>
</g>
<g>
</g>
<g>
</g>
<g>
</g>
</svg>
