<?xml version="1.0" encoding="utf-8"?>
<!-- Generator: Adobe Illustrator 16.0.4, SVG Export Plug-In . SVG Version: 6.00 Build 0)  -->
<!DOCTYPE svg PUBLIC "-//W3C//DTD SVG 1.1//EN" "http://www.w3.org/Graphics/SVG/1.1/DTD/svg11.dtd">
<svg version="1.1" id="Ebene_1" xmlns="http://www.w3.org/2000/svg" xmlns:xlink="http://www.w3.org/1999/xlink" x="0px" y="0px"
	 width="143.617px" height="75.117px" viewBox="0 0 143.617 75.117" enable-background="new 0 0 143.617 75.117"
	 xml:space="preserve">
<g>
	<path fill="#FFFFFF" d="M30.848,43.162h5.369v4.013H26V24.771h10.217v3.947h-5.369v5.259h5.019v3.814h-5.019V43.162z"/>
	<path fill="#FFFFFF" d="M46.637,30.273h4.505l-3.709,16.901h-6.126l-3.706-16.901h4.503l2.285,13.126L46.637,30.273z"/>
	<path fill="#FFFFFF" d="M61.354,29.925c2.863,0,4.297,1.529,4.297,4.57v5.476h-7.86v3.533c0,0.186,0.062,0.348,0.188,0.482
		c0.125,0.142,0.286,0.212,0.47,0.212h1.902c0.186,0,0.343-0.07,0.47-0.212c0.127-0.135,0.188-0.297,0.188-0.482v-1.872h4.643v1.317
		c0,3.043-1.435,4.571-4.297,4.571h-3.912c-2.861,0-4.294-1.528-4.294-4.571v-8.454c0-3.041,1.433-4.57,4.294-4.57H61.354z
		 M57.791,36.928h3.219v-3.12c0-0.187-0.062-0.349-0.188-0.481c-0.127-0.144-0.285-0.211-0.47-0.211h-1.902
		c-0.185,0-0.346,0.067-0.47,0.211c-0.126,0.133-0.188,0.295-0.188,0.481V36.928z"/>
	<path fill="#FFFFFF" d="M75.417,29.925h0.9v4.508h-2.285c-0.792,0-1.18,0.396-1.18,1.205v11.536h-4.644V30.273h4.23v1.63
		C73.103,30.591,74.101,29.925,75.417,29.925z"/>
	<path fill="#FFFFFF" d="M86.6,29.925c2.862,0,4.296,1.529,4.296,4.57v5.476h-7.864v3.533c0,0.186,0.06,0.348,0.191,0.482
		c0.126,0.142,0.286,0.212,0.474,0.212h1.899c0.185,0,0.339-0.07,0.474-0.212c0.117-0.135,0.181-0.297,0.181-0.482v-1.872h4.646
		v1.317c0,3.043-1.435,4.571-4.297,4.571h-3.913c-2.857,0-4.293-1.528-4.293-4.571v-8.454c0-3.041,1.436-4.57,4.293-4.57H86.6z
		 M83.032,36.928h3.219v-3.12c0-0.187-0.063-0.349-0.181-0.481c-0.135-0.144-0.289-0.211-0.474-0.211h-1.899
		c-0.188,0-0.348,0.067-0.474,0.211c-0.132,0.133-0.191,0.295-0.191,0.481V36.928z"/>
	<path fill="#FFFFFF" d="M101.421,36.583c2.859,0,4.293,1.517,4.293,4.571v1.796c0,3.043-1.434,4.571-4.293,4.571h-3.838
		c-2.873,0-4.303-1.528-4.303-4.571v-1.076h4.303v1.525c0,0.186,0.059,0.347,0.182,0.483c0.128,0.141,0.281,0.209,0.469,0.209h2.843
		c0.186,0,0.339-0.068,0.465-0.209c0.126-0.137,0.19-0.298,0.19-0.483v-2.074c0-0.185-0.064-0.347-0.19-0.491
		c-0.126-0.133-0.279-0.206-0.465-0.206h-3.571c-2.857,0-4.294-1.518-4.294-4.571v-1.561c0-3.041,1.437-4.57,4.294-4.57h3.638
		c2.86,0,4.291,1.529,4.291,4.57v0.624h-4.291v-1.072c0-0.186-0.062-0.346-0.196-0.482c-0.117-0.142-0.281-0.212-0.46-0.212h-2.635
		c-0.179,0-0.339,0.07-0.462,0.212c-0.135,0.137-0.193,0.297-0.193,0.482v1.835c0,0.186,0.059,0.35,0.193,0.486
		c0.12,0.137,0.283,0.214,0.462,0.214H101.421L101.421,36.583z"/>
	<path fill="#FFFFFF" d="M114.617,44.506H116v3.015h-3.258c-2.854,0-4.289-1.528-4.289-4.571V26.603h4.637v3.671H116v3.36h-2.91
		v9.211c0,0.65,0.131,1.09,0.385,1.316C113.726,44.397,114.111,44.506,114.617,44.506z"/>
</g>
</svg>
